<svg xmlns:xlink="http://www.w3.org/1999/xlink" xmlns="http://www.w3.org/2000/svg" fill="none" viewBox="0 0 84 83" class="icon icon-1 watch" alt="" aria-hidden="true" data-v-02b804ce="" style="transform: translate3d(0px, 0%, 0px) scale(0.99, 0.990045);" width="243"  height="240" ><rect width="81.566" height="81" x="1.368" y="1.018" fill="#00A652" rx="8.115"></rect><rect width="81.566" height="81" x="1.368" y="1.018" stroke="#141414" rx="8.115" fill="none"></rect><path fill="#141414" d="M39.205 28.923a1.91 1.91 0 0 0 1.796.312l3.634-1.224c1.446-.487 1.775-2.391.575-3.337L40.9 21.27a1.91 1.91 0 0 0-1.795-.312l-3.634 1.224c-1.446.487-1.775 2.391-.576 3.337zM22.721 35.389l6.964-2.345c1.446-.487 1.774-2.392.575-3.338l-4.31-3.402a1.91 1.91 0 0 0-1.795-.312l-4.112 1.384a1.926 1.926 0 0 0-1.209 2.437l1.459 4.363a1.916 1.916 0 0 0 2.428 1.212M54.63 23.729a1.91 1.91 0 0 0 1.797.312l4.191-1.412a1.927 1.927 0 0 0 1.208-2.437l-1.458-4.362a1.916 1.916 0 0 0-2.428-1.213l-7.043 2.372c-1.447.486-1.775 2.39-.576 3.337zM60.88 38.117h-2.926c-.779 0-1.505.393-1.932 1.047l-3.326 5.088a2.31 2.31 0 0 1-1.932 1.047h-2.485c-1.838 0-2.94-2.049-1.932-3.591s-.094-3.591-1.931-3.591h-3.067c-.778 0-1.504.393-1.932 1.047l-3.326 5.088a2.31 2.31 0 0 1-1.932 1.047h-1.971c-1.838 0-2.94-2.049-1.932-3.591s-.094-3.591-1.932-3.591h-5.445a3.36 3.36 0 0 0-3.353 3.365v23.513a3.36 3.36 0 0 0 3.353 3.365h38a3.36 3.36 0 0 0 3.353-3.365V41.482a3.36 3.36 0 0 0-3.353-3.365"></path></svg>