<svg xmlns:xlink="http://www.w3.org/1999/xlink" xmlns="http://www.w3.org/2000/svg" aria-hidden="true" class="logo"
    data-v-a785170d="" width="38" height="38">
    <defs>
        <symbol viewBox="0 0 38 38" fill="none" id="icon-nav-logo">
            <rect width="38" height="38" rx="4" fill="#FF6D38"></rect>
            <path
                d="M29.8301 11.7659L25.3877 7.19147C25.1971 6.99527 24.8946 6.94367 24.6458 7.06547L18.8497 9.89807C18.5404 10.0493 18.4166 10.4135 18.5735 10.7117L19.5947 12.6563C19.7516 12.9545 20.1291 13.0739 20.4384 12.9227L22.0265 12.1469L20.5272 19.9565C20.5066 20.0633 20.3616 20.0921 20.2991 20.0015L15.6823 13.3223C15.2286 12.6659 14.408 12.3401 13.6067 12.4991C12.8055 12.6575 12.1843 13.2689 12.0355 14.0447L9.01061 29.7989C8.94749 30.1277 9.17248 30.4439 9.51372 30.5045L12.2299 30.9899C12.5711 31.0505 12.8986 30.8333 12.9618 30.5045L15.0292 19.7381C15.0498 19.6313 15.1948 19.6025 15.2573 19.6931L19.8741 26.3723C20.3278 27.0287 21.1484 27.3545 21.9496 27.1955C22.7509 27.0371 23.3721 26.4257 23.5209 25.6499L25.9927 12.7745L27.2645 14.0843C27.5014 14.3285 27.8989 14.3411 28.152 14.1125L29.8013 12.6221C30.0544 12.3935 30.0676 12.0101 29.8301 11.7659Z"
                fill="#141414"></path>
        </symbol>
    </defs>
    <g>
        <rect width="38" height="38" rx="4" fill="#FF6D38"></rect>
        <path
            d="M29.8301 11.7659L25.3877 7.19147C25.1971 6.99527 24.8946 6.94367 24.6458 7.06547L18.8497 9.89807C18.5404 10.0493 18.4166 10.4135 18.5735 10.7117L19.5947 12.6563C19.7516 12.9545 20.1291 13.0739 20.4384 12.9227L22.0265 12.1469L20.5272 19.9565C20.5066 20.0633 20.3616 20.0921 20.2991 20.0015L15.6823 13.3223C15.2286 12.6659 14.408 12.3401 13.6067 12.4991C12.8055 12.6575 12.1843 13.2689 12.0355 14.0447L9.01061 29.7989C8.94749 30.1277 9.17248 30.4439 9.51372 30.5045L12.2299 30.9899C12.5711 31.0505 12.8986 30.8333 12.9618 30.5045L15.0292 19.7381C15.0498 19.6313 15.1948 19.6025 15.2573 19.6931L19.8741 26.3723C20.3278 27.0287 21.1484 27.3545 21.9496 27.1955C22.7509 27.0371 23.3721 26.4257 23.5209 25.6499L25.9927 12.7745L27.2645 14.0843C27.5014 14.3285 27.8989 14.3411 28.152 14.1125L29.8013 12.6221C30.0544 12.3935 30.0676 12.0101 29.8301 11.7659Z"
            fill="#141414"></path>
    </g>
</svg>