<svg xmlns:xlink="http://www.w3.org/1999/xlink" xmlns="http://www.w3.org/2000/svg" viewBox="0 0 95 83" fill="none"
    class="desktop-only" data-v-13822dcf="" width="295" height="240">
    <path
        d="M1.09009 9.13254C1.09009 4.65077 4.72328 1.01758 9.20505 1.01758L66.1868 1.01759C69.0848 1.01759 71.7628 2.563 73.2129 5.07211L91.9285 37.4571C93.3804 39.9694 93.3804 43.0657 91.9285 45.578L73.2129 77.9631C71.7628 80.4722 69.0848 82.0176 66.1868 82.0176H9.20505C4.72328 82.0176 1.09009 78.3844 1.09009 73.9026V9.13254Z"
        fill="#FF6D38" stroke="#141414" data-v-13822dcf=""></path>
    <path
        d="M40.9872 15.5938C28.7208 15.5938 18.7766 25.6193 18.7766 37.9865V64.5234C18.7883 66.3925 21.0302 67.3204 22.3411 65.9988L25.108 63.2092C26.205 62.1031 27.9837 62.1031 29.0809 63.2092L31.1973 65.3428C32.2943 66.4489 34.073 66.4488 35.17 65.3428L39.0285 61.4525C40.1257 60.3463 41.9045 60.3463 43.0017 61.4526L46.6029 65.0836C47.7 66.1897 49.4788 66.1898 50.5759 65.0836L52.4351 63.2092C53.5321 62.1031 55.3109 62.1031 56.4079 63.2092L59.2287 66.0531C60.6364 67.4724 63.1675 66.5756 63.1972 64.5687C63.1974 64.5536 63.1975 64.5385 63.1975 64.5234V37.9865C63.1975 25.6193 53.2536 15.5938 40.9872 15.5938ZM37.8141 44.3846C35.4776 44.3846 33.5836 42.4749 33.5836 40.1193C33.5836 37.7636 35.4776 35.854 37.8141 35.854C40.1507 35.854 42.0447 37.7636 42.0447 40.1193C42.0447 42.4749 40.1507 44.3846 37.8141 44.3846ZM53.6787 44.3846C51.3422 44.3846 49.4482 42.4749 49.4482 40.1193C49.4482 37.7636 51.3422 35.854 53.6787 35.854C56.0153 35.854 57.9093 37.7636 57.9093 40.1193C57.9093 42.4749 56.0153 44.3846 53.6787 44.3846Z"
        fill="#141414" data-v-13822dcf=""></path>
</svg>