<svg xmlns:xlink="http://www.w3.org/1999/xlink" xmlns="http://www.w3.org/2000/svg" fill="none" viewBox="0 0 83 83" class="icon icon-4 shirt" alt="" aria-hidden="true" data-v-02b804ce="" style="transform: translate(0px, 0%);" width="240"  height="240" ><rect width="81" height="81" x="1.231" y="1.018" fill="#478BFF" rx="40.5"></rect><rect width="81" height="81" x="1.231" y="1.018" stroke="#141414" rx="40.5" fill="none"></rect><path fill="#141414" d="M63.82 20.623H52.742c-1.298 0-2.521.75-2.99 1.957a8.3 8.3 0 0 1-7.743 5.298 8.3 8.3 0 0 1-7.743-5.298c-.469-1.208-1.691-1.957-2.99-1.957H20.199a3.11 3.11 0 0 0-3.116 3.11v11.4a3.11 3.11 0 0 0 3.116 3.108h5.193a3.11 3.11 0 0 1 3.116 3.11v19.69a3.11 3.11 0 0 0 3.116 3.11h20.772a3.11 3.11 0 0 0 3.116-3.11v-19.69a3.11 3.11 0 0 1 3.116-3.11h5.193a3.11 3.11 0 0 0 3.116-3.109v-11.4a3.11 3.11 0 0 0-3.116-3.109"></path></svg>