<svg xmlns:xlink="http://www.w3.org/1999/xlink" xmlns="http://www.w3.org/2000/svg" fill="none" viewBox="0 0 83 83" class="icon icon-3 bag" alt="" aria-hidden="true" data-v-02b804ce="" style="transform: translate(0px, 0%);" width="240"  height="240" ><rect width="81" height="81" x="1.195" y="1.018" fill="#FFC412" rx="8.115"></rect><rect width="81" height="81" x="1.195" y="1.018" stroke="#141414" rx="8.115" fill="none"></rect><path fill="#141414" d="M55.157 31.195V28.31c0-7.323-5.74-13.604-13.077-13.738-7.474-.137-13.575 5.869-13.575 13.297v3.325a3.33 3.33 0 0 1-3.332 3.324h-6.19a3.327 3.327 0 0 0-3.301 3.765l3.553 26.598a3.33 3.33 0 0 0 3.302 2.886h38.587a3.33 3.33 0 0 0 3.302-2.886l3.553-26.598a3.327 3.327 0 0 0-3.302-3.765h-6.189a3.33 3.33 0 0 1-3.331-3.324m-19.99-3.325c0-3.955 3.477-7.114 7.54-6.594 3.359.43 5.786 3.446 5.786 6.825v3.094a3.33 3.33 0 0 1-3.33 3.324h-6.664a3.33 3.33 0 0 1-3.331-3.324z"></path></svg>